<?xml version="1.0" standalone="no"?>
<!DOCTYPE svg PUBLIC "-//W3C//DTD SVG 1.1//EN" "http://www.w3.org/Graphics/SVG/1.1/DTD/svg11.dtd" >
<svg xmlns="http://www.w3.org/2000/svg">
<metadata>Generated by IcoMoon</metadata>
<defs>
<font id="icomoon" horiz-adv-x="1024">
<font-face units-per-em="1024" ascent="960" descent="-64" />
<missing-glyph horiz-adv-x="1024" />
<glyph unicode="&#x20;" horiz-adv-x="512" d="" />
<glyph unicode="&#xe900;" glyph-name="database_upgrade" d="M298.667 213.338c0 23.561 19.103 42.667 42.667 42.667s42.667-19.106 42.667-42.667c0-23.565-19.102-42.667-42.667-42.667s-42.667 19.102-42.667 42.667zM170.667 704c0 112.213 170.667 170.667 341.333 170.667s341.333-58.453 341.333-170.667v-307.499c-20.343 5.756-41.813 8.836-64 8.836-90.206 0-168.521-50.897-207.799-125.538-23.044-2.253-46.263-3.081-69.534-2.462-88.41-2.351-176.125 16.213-256 54.187v-139.52c0-30.293 97.28-85.333 256-85.333 17.771 0 34.773 0.687 50.957 1.954 8.205-30.016 22.225-57.634 40.768-81.566-29.897-3.806-60.813-5.726-91.725-5.726-170.667 0-341.333 58.453-341.333 170.667v512zM512 362.671c158.72 0 256 55.040 256 85.333v139.518c-79.876-37.972-167.59-56.536-256-54.187-88.41-2.349-176.125 16.215-256 54.187v-139.518c0-30.293 97.28-85.333 256-85.333zM256 703.997c0-30.293 97.28-85.333 256-85.333s256 55.040 256 85.333c0 30.293-97.28 85.333-256 85.333s-256-55.040-256-85.333zM298.667 469.338c0 23.561 19.103 42.667 42.667 42.667s42.667-19.106 42.667-42.667c0-23.565-19.102-42.667-42.667-42.667s-42.667 19.102-42.667 42.667zM640 170.667c0 82.432 66.901 149.333 149.333 149.333s149.333-66.901 149.333-149.333c0-82.432-66.901-149.333-149.333-149.333s-149.333 66.901-149.333 149.333zM804.267 155.733h44.8c8.213 0 14.933 6.72 14.933 14.933s-6.72 14.933-14.933 14.933h-44.8v44.8c0 8.213-6.72 14.933-14.933 14.933s-14.933-6.72-14.933-14.933v-44.8h-44.8c-8.213 0-14.933-6.72-14.933-14.933s6.72-14.933 14.933-14.933h44.8v-44.8c0-8.213 6.72-14.933 14.933-14.933s14.933 6.72 14.933 14.933v44.8z" />
<glyph unicode="&#xe901;" glyph-name="smart_ca" d="M512 789.333c155.307 0 284.587-110.507 313.6-257.707 110.933-7.68 198.4-98.987 198.4-211.627 0-117.76-95.573-213.333-213.333-213.333h-554.667c-141.227 0-256 114.773-256 256 0 131.84 99.84 240.64 228.267 254.293 53.333 102.4 160.427 172.373 283.733 172.373zM527.104 440.188c-22.11 62.609-87.279 104.734-160.127 90.304-53.298-10.705-96.588-53.299-107.76-106.594-19.085-90.074 49.341-169.903 136.387-169.903 60.745 0 112.415 38.869 131.5 93.094h101.244v-46.545c0-25.604 20.945-46.549 46.549-46.549 25.6 0 46.545 20.945 46.545 46.549v46.545c25.604 0 46.549 20.949 46.549 46.549 0 25.604-20.945 46.549-46.549 46.549h-194.338zM395.6 347.093c-25.602 0-46.549 20.949-46.549 46.549s20.947 46.549 46.549 46.549c25.601 0 46.55-20.949 46.55-46.549s-20.949-46.549-46.55-46.549z" />
<glyph unicode="&#xe902;" glyph-name="doc-accept" d="M420.896 855.030c12.717-12.27 13.084-32.528 0.813-45.248l-137.604-142.639c-0.235-0.247-0.475-0.491-0.719-0.732-9.853-9.732-24.52-11.791-36.409-6.041-3.208 1.55-6.206 3.664-8.843 6.338-0.242 0.244-0.479 0.492-0.711 0.742l-90.076 95.866c-12.102 12.88-11.471 33.131 1.408 45.233s33.132 11.471 45.233-1.409l67.225-71.546 114.435 118.623c12.27 12.719 32.528 13.083 45.248 0.813zM401.736 587.264c0 17.673 14.327 32 32 32h206.263c17.673 0 32-14.327 32-32s-14.327-32-32-32h-206.263c-17.673 0-32 14.327-32 32zM401.736 453.632c0 17.673 14.327 32 32 32h206.263c17.673 0 32-14.327 32-32s-14.327-32-32-32h-206.263c-17.673 0-32 14.327-32 32zM401.736 320c0 17.673 14.327 32 32 32h206.263c17.673 0 32-14.327 32-32s-14.327-32-32-32h-206.263c-17.673 0-32 14.327-32 32zM497.745 832c0 17.673 14.327 32 32 32h265.408c48.004 0 90.18-37.139 90.18-86.857v-658.287c0-49.715-42.176-86.857-90.18-86.857h-523.638c-48.006 0-90.182 37.141-90.182 86.857v415.468c0 17.673 14.327 32 32 32s32-14.327 32-32v-415.468c0-10.876 9.922-22.857 26.182-22.857h523.638c16.26 0 26.18 11.981 26.18 22.857v658.287c0 10.876-9.92 22.857-26.18 22.857h-265.408c-17.673 0-32 14.327-32 32z" />
<glyph unicode="&#xe903;" glyph-name="license_list" d="M554.667 213.333c0 105.984 86.016 192 192 192s192-86.016 192-192c0-105.984-86.016-192-192-192s-192 86.016-192 192zM674.667 333.333c-13.257 0-24-10.743-24-24s10.743-24 24-24h144c13.257 0 24 10.743 24 24s-10.743 24-24 24h-144zM650.667 213.333c0 13.257 10.743 24 24 24h144c13.257 0 24-10.743 24-24s-10.743-24-24-24h-144c-13.257 0-24 10.743-24 24zM674.667 141.333c-13.257 0-24-10.743-24-24s10.743-24 24-24h144c13.257 0 24 10.743 24 24s-10.743 24-24 24h-144zM42.667 832c0 47.128 38.205 85.333 85.333 85.333h640c47.13 0 85.333-38.205 85.333-85.333v-362.59c-32.836 13.696-68.868 21.257-106.667 21.257-131.14 0-241.020-91.021-269.914-213.333h-348.753c-47.128 0-85.333 38.204-85.333 85.333v469.333zM320 448c106.039 0 192 85.961 192 192s-85.961 192-192 192c-106.039 0-192-85.961-192-192s85.961-192 192-192zM384.129 762.671c-30.603 15.302-66.031 17.819-98.491 6.999-38.523-12.841-68.752-43.070-81.593-81.593l-1.456-4.368c-9.457-28.371-9.457-59.045 0-87.416l1.456-4.368c12.841-38.523 43.070-68.751 81.593-81.594 32.46-10.82 67.888-8.303 98.491 7.002l19.707 9.852c16.861 8.431 23.697 28.934 15.265 45.795s-28.934 23.695-45.795 15.265l-19.707-9.853c-14.409-7.205-31.090-8.39-46.374-3.296-18.138 6.046-32.371 20.279-38.417 38.417l-1.456 4.368c-4.786 14.359-4.786 29.882 0 44.241l1.456 4.368c6.046 18.138 20.279 32.371 38.417 38.417 15.283 5.094 31.964 3.909 46.374-3.296l19.707-9.853c16.861-8.431 37.364-1.596 45.795 15.265s1.596 37.364-15.265 45.795l-19.707 9.854z" />
<glyph unicode="&#xe904;" glyph-name="circle-warning" d="M512 874.667c-84.386 0-166.878-25.024-237.043-71.906s-124.852-113.519-157.145-191.482c-32.294-77.962-40.743-163.752-24.28-246.516s57.099-158.788 116.77-218.462c59.67-59.669 135.695-100.305 218.46-116.77 82.765-16.461 168.555-8.013 246.515 24.282 77.965 32.294 144.602 86.98 191.484 157.146s71.906 152.657 71.906 237.043c0 56.030-11.038 111.513-32.478 163.278s-52.868 98.801-92.489 138.421c-39.62 39.619-86.656 71.048-138.423 92.49-51.763 21.442-107.247 32.478-163.277 32.478zM554.667 234.667h-85.333v256h85.333v-256zM554.667 576h-85.333v85.333h85.333v-85.333z" />
<glyph unicode="&#xe905;" glyph-name="circle-deny" d="M512 874.667c-84.386 0-166.878-25.024-237.043-71.907s-124.852-113.519-157.145-191.482c-32.294-77.962-40.743-163.752-24.28-246.516s57.099-158.788 116.77-218.462c59.67-59.669 135.695-100.305 218.46-116.77 82.765-16.461 168.555-8.013 246.515 24.282 77.965 32.294 144.602 86.98 191.484 157.146s71.906 152.657 71.906 237.043c0.051 56.043-10.953 111.549-32.375 163.338s-52.851 98.844-92.48 138.473c-39.629 39.63-86.686 71.056-138.475 92.48s-107.29 32.426-163.337 32.375zM725.333 294.827l-60.16-60.16-153.173 153.173-153.173-153.173-60.16 60.16 153.173 153.173-153.173 153.173 60.16 60.16 153.173-153.173 153.173 153.173 60.16-60.16-153.173-153.173 153.173-153.173z" />
<glyph unicode="&#xe906;" glyph-name="circle-checked" d="M938.667 448c0-235.639-191.027-426.667-426.667-426.667-235.642 0-426.667 191.027-426.667 426.667 0 235.642 191.025 426.667 426.667 426.667 235.639 0 426.667-191.025 426.667-426.667zM218.453 446.733l211.191-211.191 362.035 362.039-60.339 60.34-301.696-301.696-150.852 150.852-60.34-60.343z" />
<glyph unicode="&#xe907;" glyph-name="blood" d="M768 320c0-149.333-114.615-256-256-256s-256 106.667-256 256c0 149.333 256 512 256 512s256-362.667 256-512zM597.333 277.333c0-42.667-38.204-85.333-85.333-85.333s-85.333 42.667-85.333 85.333c0 42.667 85.333 170.667 85.333 170.667s85.333-128 85.333-170.667z" />
<glyph unicode="&#xe908;" glyph-name="beenhere_rounded" d="M213.333 912.958h597.333c46.933 0 85.333-38.4 85.333-85.333v-551.678c0-29.44-14.933-55.467-37.547-70.827l-322.56-215.040c-14.507-9.387-32.853-9.387-47.36 0l-322.987 215.040c-22.613 15.36-37.547 41.387-37.547 70.827l0.427 551.678c0 46.933 37.973 85.333 84.907 85.333zM456.96 303.253l323.84 323.838c16.64 16.64 16.213 43.52-0.427 60.16s-43.52 16.64-60.16 0l-293.547-293.545-122.88 122.88c-16.64 16.64-43.52 16.64-60.16 0s-16.64-43.52 0-60.16l153.173-153.173c16.64-16.64 43.52-16.64 60.16 0z" />
<glyph unicode="&#xe909;" glyph-name="assignment_org_rounded" d="M810.667 789.333h-178.347c-17.92 49.493-64.853 85.333-120.32 85.333s-102.4-35.84-120.32-85.333h-178.347c-46.933 0-85.333-38.4-85.333-85.333v-597.333c0-46.933 38.4-85.333 85.333-85.333h597.333c46.933 0 85.333 38.4 85.333 85.333v597.333c0 46.933-38.4 85.333-85.333 85.333zM512 789.333c23.467 0 42.667-19.2 42.667-42.667s-19.2-42.667-42.667-42.667c-23.467 0-42.667 19.2-42.667 42.667s19.2 42.667 42.667 42.667zM284.445 547.555c0-15.643 12.8-28.443 28.444-28.443h398.224c15.642 0 28.442 12.8 28.442 28.443 0 15.645-12.8 28.445-28.442 28.445h-398.224c-15.644 0-28.444-12.8-28.444-28.445zM716.233 490.667c13.653 0 25.314-9.673 27.874-22.754l23.893-119.467v-28.446c0-15.646-12.8-28.446-28.446-28.446v-142.221c0-15.646-12.8-28.446-28.442-28.446-15.646 0-28.446 12.8-28.446 28.446v142.221h-113.779v-142.221c0-15.646-12.8-28.446-28.442-28.446h-227.557c-15.644 0-28.444 12.8-28.444 28.446v142.221c-15.645 0-28.445 12.8-28.445 28.446v28.446l23.893 119.467c2.56 13.082 14.222 22.754 27.875 22.754h408.464zM341.333 177.779h170.667v113.775h-170.667v-113.775z" />
<glyph unicode="&#xe90a;" glyph-name="telegram" d="M128 448l239.36-127.659 357.973 298.325-341.333-403.413v-151.253l134.997 175.488 249.003-132.821 128 725.333-768-384z" />
<glyph unicode="&#xe90b;" glyph-name="stamp_assign" d="M520.828 106.667h-289.59c-12.738 0-23.066 10.325-23.066 23.066v28.006h-3.503c-12.738 0-23.065 10.33-23.065 23.066v101.683c0 9.34 5.563 17.365 13.547 20.992-0.305 8.64 0.68 31.578 17.527 50.291 14.156 15.727 34.838 23.697 61.477 23.697 51.135 0 132.257 35.166 132.257 129.536 0 52.213-31.824 115.653-32.144 116.286l-0.255 0.517c-9.786 16.838-14.946 35.893-14.946 55.262 0 60.8 49.464 110.265 110.266 110.265 60.8 0 110.263-49.465 110.259-110.262 0-19.369-5.158-38.418-14.946-55.258l-0.26-0.535c-0.316-0.621-32.137-64.058-32.137-116.27 0-80.414 58.901-117.841 107.964-127.151-49.916-25.451-89.51-68.241-110.852-120.431h-301.629v-50.901c1.144 0.175 2.31 0.294 3.503 0.294h283.846c-2.027-12.416-3.085-25.161-3.085-38.153 0-22.187 3.081-43.657 8.832-64zM746.667 320c-82.432 0-149.333-66.901-149.333-149.333s66.901-149.333 149.333-149.333c82.432 0 149.333 66.901 149.333 149.333s-66.901 149.333-149.333 149.333zM746.667 275.196c24.789 0 44.8-20.011 44.8-44.8s-20.011-44.8-44.8-44.8c-24.789 0-44.8 20.011-44.8 44.8s20.011 44.8 44.8 44.8zM657.062 111.228c0.448 29.717 59.733 45.995 89.6 45.995 29.717 0 89.152-16.277 89.6-45.995-19.264-28.971-52.267-48.085-89.6-48.085s-70.336 19.115-89.6 48.085z" />
<glyph unicode="&#xe90c;" glyph-name="signature_manage" d="M618.953 789.333c-15.932 49.493-57.647 85.333-106.953 85.333s-91.022-35.84-106.951-85.333h-158.53c-41.719 0-75.852-38.4-75.852-85.333v-597.333c0-46.933 34.133-85.333 75.852-85.333h361.789c-33.51 40.572-53.641 92.604-53.641 149.333 0 129.604 105.062 234.667 234.667 234.667 22.187 0 43.657-3.081 64-8.832v307.499c0 46.933-34.133 85.333-75.853 85.333h-158.528zM554.667 789.333c0-23.467-19.2-42.667-42.667-42.667s-42.667 19.2-42.667 42.667c0 23.467 19.2 42.667 42.667 42.667s42.667-19.2 42.667-42.667zM256 192c0 0.555 0.083 1.186 0.244 1.89-0.090-0.649-0.172-1.28-0.244-1.89zM256.244 193.89c11.501 82.701 168.741 495.516 426.422 465.929 0 0-34.189-58.253-120.491-77.078 0 0 40.175-5.154 72.734 6.271 0 0-19.541-66.256-125.901-75.361 0 0 58.615-15.987 84.663-6.848 0 0-7.070-49.387-115.362-73.929-6.417-1.442-49.638-12.821-14.912-17.395 0 0 49.916-9.169 62.967-4.578 0 0-25.946-40.879-86.993-56.247-37.475-9.434-75.753-21.982-100.966-51.268-34.267-39.799-78.493-93.483-82.163-109.495zM897.293 170.667c0-5.077-0.448-9.856-1.045-14.635l31.509-24.64c2.837-2.24 3.584-6.272 1.792-9.557l-29.867-51.669c-1.792-3.285-5.675-4.629-9.109-3.285l-37.184 14.933c-7.765-5.824-16.128-10.901-25.237-14.635l-5.675-39.573c-0.448-3.584-3.584-6.272-7.317-6.272h-59.733c-3.733 0-6.869 2.688-7.317 6.272l-5.675 39.573c-9.109 3.733-17.472 8.661-25.237 14.635l-37.184-14.933c-3.285-1.195-7.317 0-9.109 3.285l-29.867 51.669c-1.792 3.285-1.045 7.317 1.792 9.557l31.509 24.64c-0.597 4.779-1.045 9.707-1.045 14.635s0.448 9.856 1.045 14.635l-31.509 24.64c-2.837 2.24-3.733 6.272-1.792 9.557l29.867 51.669c1.792 3.285 5.675 4.629 9.109 3.285l37.184-14.933c7.765 5.824 16.128 10.901 25.237 14.635l5.675 39.573c0.448 3.584 3.584 6.272 7.317 6.272h59.733c3.733 0 6.869-2.688 7.317-6.272l5.675-39.573c9.109-3.733 17.472-8.661 25.237-14.635l37.184 14.933c3.285 1.195 7.317 0 9.109-3.285l29.867-51.669c1.792-3.285 1.045-7.317-1.792-9.557l-31.509-24.64c0.597-4.779 1.045-9.557 1.045-14.635zM733.005 170.662c0-28.821 23.445-52.267 52.267-52.267s52.267 23.445 52.267 52.267c0 28.821-23.445 52.267-52.267 52.267s-52.267-23.445-52.267-52.267z" />
<glyph unicode="&#xe90d;" glyph-name="signature_list" d="M618.953 789.333c-15.932 49.493-57.647 85.333-106.953 85.333s-91.022-35.84-106.951-85.333h-158.53c-41.719 0-75.852-38.4-75.852-85.333v-597.333c0-46.933 34.133-85.333 75.852-85.333h361.789c-33.51 40.572-53.641 92.604-53.641 149.333 0 129.604 105.062 234.667 234.667 234.667 22.187 0 43.657-3.081 64-8.832v307.499c0 46.933-34.133 85.333-75.853 85.333h-158.528zM554.667 789.333c0-23.467-19.2-42.667-42.667-42.667s-42.667 19.2-42.667 42.667c0 23.467 19.2 42.667 42.667 42.667s42.667-19.2 42.667-42.667zM256 192c0 0.555 0.083 1.186 0.244 1.89-0.090-0.649-0.172-1.28-0.244-1.89zM256.244 193.89c11.501 82.701 168.741 495.516 426.422 465.929 0 0-34.189-58.253-120.491-77.078 0 0 40.175-5.154 72.734 6.271 0 0-19.541-66.256-125.901-75.361 0 0 58.615-15.987 84.663-6.848 0 0-7.070-49.387-115.362-73.929-6.417-1.442-49.638-12.821-14.912-17.395 0 0 49.916-9.169 62.967-4.578 0 0-25.946-40.879-86.993-56.247-37.475-9.434-75.753-21.982-100.966-51.268-34.267-39.799-78.493-93.483-82.163-109.495zM640 170.667c0 82.432 66.901 149.333 149.333 149.333s149.333-66.901 149.333-149.333c0-82.432-66.901-149.333-149.333-149.333s-149.333 66.901-149.333 149.333zM733.333 264c-10.308 0-18.667-8.358-18.667-18.667s8.358-18.667 18.667-18.667h112c10.308 0 18.667 8.358 18.667 18.667s-8.358 18.667-18.667 18.667h-112zM714.667 170.667c0 10.308 8.358 18.667 18.667 18.667h112c10.308 0 18.667-8.358 18.667-18.667s-8.358-18.667-18.667-18.667h-112c-10.308 0-18.667 8.358-18.667 18.667zM733.333 114.667c-10.308 0-18.667-8.358-18.667-18.667s8.358-18.667 18.667-18.667h112c10.308 0 18.667 8.358 18.667 18.667s-8.358 18.667-18.667 18.667h-112z" />
<glyph unicode="&#xe90e;" glyph-name="signature_assign" d="M618.953 789.333c-15.932 49.493-57.647 85.333-106.953 85.333s-91.022-35.84-106.951-85.333h-158.53c-41.719 0-75.852-38.4-75.852-85.333v-597.333c0-46.933 34.133-85.333 75.852-85.333h361.789c-33.51 40.572-53.641 92.604-53.641 149.333 0 129.604 105.062 234.667 234.667 234.667 22.187 0 43.657-3.081 64-8.832v307.499c0 46.933-34.133 85.333-75.853 85.333h-158.528zM554.667 789.333c0-23.467-19.2-42.667-42.667-42.667s-42.667 19.2-42.667 42.667c0 23.467 19.2 42.667 42.667 42.667s42.667-19.2 42.667-42.667zM256 192c0 0.555 0.083 1.186 0.244 1.89-0.090-0.649-0.172-1.28-0.244-1.89zM256.244 193.89c11.501 82.701 168.741 495.516 426.422 465.929 0 0-34.189-58.253-120.491-77.078 0 0 40.175-5.154 72.734 6.271 0 0-19.541-66.256-125.901-75.361 0 0 58.615-15.987 84.663-6.848 0 0-7.070-49.387-115.362-73.929-6.417-1.442-49.638-12.821-14.912-17.395 0 0 49.916-9.169 62.967-4.578 0 0-25.946-40.879-86.993-56.247-37.475-9.434-75.753-21.982-100.966-51.268-34.267-39.799-78.493-93.483-82.163-109.495zM789.333 320c-82.432 0-149.333-66.901-149.333-149.333s66.901-149.333 149.333-149.333c82.432 0 149.333 66.901 149.333 149.333s-66.901 149.333-149.333 149.333zM789.333 275.2c24.789 0 44.8-20.011 44.8-44.8s-20.011-44.8-44.8-44.8c-24.789 0-44.8 20.011-44.8 44.8s20.011 44.8 44.8 44.8zM699.733 111.232c0.448 29.717 59.733 45.995 89.6 45.995 29.717 0 89.152-16.277 89.6-45.995-19.264-28.971-52.267-48.085-89.6-48.085s-70.336 19.115-89.6 48.085z" />
<glyph unicode="&#xe90f;" glyph-name="pen" d="M981.333 914.023c-530.368 57.887-875.737-658.812-961.44-939.691-6.493-21.282 17.179-31.194 30.454-13.338 80.332 108.049 151.432 188.646 193.092 233.54 24.369 26.261 59.354 38.554 95.128 40.452 200.346 10.633 283.273 134.822 283.273 134.822-30.020-10.035-144.828 10.005-144.828 10.005-79.871 10.005 19.541 34.88 34.304 38.033 249.071 53.658 265.331 161.635 265.331 161.635-59.913-19.988-194.731 14.971-194.731 14.971 244.634 19.909 289.574 164.762 289.574 164.762-74.884-24.978-167.283-13.711-167.283-13.711 198.485 41.158 277.124 168.518 277.124 168.518z" />
<glyph unicode="&#xe910;" glyph-name="package_manage" d="M816 645.588h-736c-8.832 0-16 6.316-16 14.097v113.903h768v-113.931c0-7.782-7.168-14.069-16-14.069zM730.637 901.204c-8.094 10.19-20.399 16.129-33.412 16.129h-498.45c-13.013 0-25.315-5.939-33.41-16.129l-101.364-127.615h768l-101.363 127.615zM105.604 187.733v376.642h682.667v-116.375c-152.678-0.576-276.271-124.523-276.271-277.333 0-7.177 0.273-14.293 0.806-21.333h-368.922c-21.054 0-38.28 17.28-38.28 38.4zM353.821 443.831h186.233c17.131 0 31.040 13.952 31.040 31.134 0 17.186-13.909 31.138-31.040 31.138h-186.233c-17.131 0-31.039-13.952-31.039-31.138 0-17.182 13.908-31.134 31.039-31.134zM937.417 165.282c0-6.711-0.593-13.030-1.382-19.345l41.651-32.567c3.75-2.961 4.736-8.29 2.368-12.634l-39.479-68.297c-2.368-4.343-7.501-6.118-12.041-4.343l-49.148 19.738c-10.266-7.697-21.316-14.409-33.357-19.341l-7.501-52.309c-0.593-4.736-4.74-8.29-9.673-8.29h-78.955c-4.937 0-9.079 3.554-9.673 8.29l-7.501 52.309c-12.041 4.932-23.095 11.447-33.357 19.341l-49.152-19.738c-4.343-1.579-9.673 0-12.041 4.343l-39.475 68.297c-2.368 4.343-1.382 9.673 2.368 12.634l41.647 32.567c-0.789 6.315-1.382 12.83-1.382 19.345 0 6.511 0.593 13.026 1.382 19.341l-41.647 32.572c-3.75 2.961-4.937 8.29-2.368 12.629l39.475 68.297c2.368 4.343 7.501 6.118 12.041 4.343l49.152-19.738c10.261 7.697 21.316 14.409 33.357 19.341l7.501 52.309c0.593 4.736 4.736 8.29 9.673 8.29h78.955c4.932 0 9.079-3.554 9.673-8.29l7.501-52.309c12.041-4.932 23.091-11.447 33.357-19.341l49.148 19.738c4.343 1.579 9.673 0 12.041-4.343l39.479-68.297c2.368-4.339 1.382-9.668-2.368-12.629l-41.651-32.572c0.789-6.315 1.382-12.629 1.382-19.341zM720.286 165.282c0-38.097 30.989-69.086 69.082-69.086 38.097 0 69.086 30.989 69.086 69.086 0 38.093-30.989 69.086-69.086 69.086-38.093 0-69.082-30.993-69.082-69.086z" />
<glyph unicode="&#xe911;" glyph-name="icon-add-doc" d="M297.465 919.526c17.673 0 32-14.327 32-32v-88.017h88.017c17.671 0 31.999-14.327 31.999-32s-14.327-32-31.999-32h-88.017v-88.017c0-17.673-14.327-32-32-32s-32 14.327-32 32v88.017h-88.017c-17.673 0-32 14.327-32 32s14.327 32 32 32h88.017v88.017c0 17.673 14.327 32 32 32zM404.432 570.681c0 17.673 14.327 32 32.001 32h222.345c17.677 0 32-14.327 32-32s-14.323-32-32-32h-222.345c-17.674 0-32.001 14.327-32.001 32zM404.432 431.714c0 17.673 14.327 32 32.001 32h222.345c17.677 0 32-14.327 32-32s-14.323-32-32-32h-222.345c-17.674 0-32.001 14.327-32.001 32zM404.432 292.749c0 17.673 14.327 32 32.001 32h222.345c17.677 0 32-14.327 32-32 0-17.677-14.323-32-32-32h-222.345c-17.674 0-32.001 14.323-32.001 32zM512.175 820.823c0 17.673 14.327 32 32 32h253.568c48.371 0 87.586-39.214 87.586-87.587v-667.043c0-48.371-39.215-87.586-87.586-87.586h-500.281c-48.373 0-87.587 39.215-87.587 87.586v420.996c0 17.672 14.327 31.999 32 31.999s32-14.327 32-31.999v-420.996c0-13.026 10.56-23.586 23.587-23.586h500.281c13.026 0 23.586 10.56 23.586 23.586v667.043c0 13.027-10.56 23.587-23.586 23.587h-253.568c-17.673 0-32 14.327-32 32z" />
<glyph unicode="&#xe912;" glyph-name="package_add" d="M816 645.588h-736c-8.832 0-16 6.316-16 14.097v113.903h768v-113.931c0-7.782-7.168-14.069-16-14.069zM730.637 901.204c-8.094 10.19-20.399 16.129-33.412 16.129h-498.45c-13.013 0-25.315-5.939-33.41-16.129l-101.364-127.615h768l-101.363 127.615zM105.604 187.733v376.642h682.667v-116.375c-152.678-0.576-276.271-124.523-276.271-277.333 0-7.177 0.273-14.293 0.806-21.333h-368.922c-21.054 0-38.28 17.28-38.28 38.4zM353.821 443.831h186.233c17.131 0 31.040 13.952 31.040 31.134 0 17.186-13.909 31.138-31.040 31.138h-186.233c-17.131 0-31.039-13.952-31.039-31.138 0-17.182 13.908-31.134 31.039-31.134zM597.333 170.667c0 105.984 86.016 192 192 192s192-86.016 192-192c0-105.984-86.016-192-192-192s-192 86.016-192 192zM808.533 151.467h57.6c10.56 0 19.2 8.64 19.2 19.2s-8.64 19.2-19.2 19.2h-57.6v57.6c0 10.56-8.64 19.2-19.2 19.2s-19.2-8.64-19.2-19.2v-57.6h-57.6c-10.56 0-19.2-8.64-19.2-19.2s8.64-19.2 19.2-19.2h57.6v-57.6c0-10.56 8.64-19.2 19.2-19.2s19.2 8.64 19.2 19.2v57.6z" />
<glyph unicode="&#xe913;" glyph-name="api_add" d="M981.333 305.626v441.041c0 46.933-38.4 85.333-85.333 85.333h-768c-46.933 0-85.333-38.4-85.333-85.333v-597.333c0-46.933 38.4-85.333 85.333-85.333h452.254c-13.295 26.010-21.884 54.831-24.631 85.333h-384.956c-23.467 0-42.667 19.2-42.667 42.667v426.667h768v-238.921c34.125-17.446 63.415-42.999 85.333-74.121zM736 389.333c0-14.579-12.087-26.667-26.667-26.667s-26.667 12.087-26.667 26.667v160c0 14.578 12.087 26.667 26.667 26.667s26.667-12.089 26.667-26.667v-160zM546.133 432.862h-68.267v-44.732c0-14.673-11.605-26.842-25.6-26.842s-25.6 12.169-25.6 26.842v152.085c0 19.682 15.36 35.785 34.133 35.785h85.333c28.331 0 51.2-23.976 51.2-53.679v-35.785c0-29.7-22.869-53.675-51.2-53.675zM546.133 522.321h-68.267v-35.785h68.267v35.785zM297.396 409.003l11.449-33.399c3.037-8.589 10.748-14.315 19.86-14.076 14.487 0 24.533 14.554 19.627 28.39l-57.011 163.657c-4.907 13.36-17.29 22.425-31.309 22.425s-26.403-9.065-31.076-22.664l-57.011-163.657c-4.907-13.837 5.14-28.39 19.627-28.39 8.879 0 16.589 5.726 19.627 14.315l11.449 33.399h74.769zM260.129 522.321l17.893-71.569h-35.785l17.892 71.569zM640 170.667c0 82.432 66.901 149.333 149.333 149.333s149.333-66.901 149.333-149.333c0-82.432-66.901-149.333-149.333-149.333s-149.333 66.901-149.333 149.333zM804.267 155.733h44.8c8.213 0 14.933 6.72 14.933 14.933s-6.72 14.933-14.933 14.933h-44.8v44.8c0 8.213-6.72 14.933-14.933 14.933s-14.933-6.72-14.933-14.933v-44.8h-44.8c-8.213 0-14.933-6.72-14.933-14.933s6.72-14.933 14.933-14.933h44.8v-44.8c0-8.213 6.72-14.933 14.933-14.933s14.933 6.72 14.933 14.933v44.8z" />
<glyph unicode="&#xe914;" glyph-name="api_list" d="M981.333 305.626v441.041c0 46.933-38.4 85.333-85.333 85.333h-768c-46.933 0-85.333-38.4-85.333-85.333v-597.333c0-46.933 38.4-85.333 85.333-85.333h452.254c-13.295 26.010-21.884 54.831-24.631 85.333h-384.956c-23.467 0-42.667 19.2-42.667 42.667v426.667h768v-238.921c34.125-17.446 63.415-42.999 85.333-74.121zM736 389.333c0-14.579-12.087-26.667-26.667-26.667s-26.667 12.087-26.667 26.667v160c0 14.578 12.087 26.667 26.667 26.667s26.667-12.089 26.667-26.667v-160zM546.133 432.862h-68.267v-44.732c0-14.673-11.605-26.842-25.6-26.842s-25.6 12.169-25.6 26.842v152.085c0 19.682 15.36 35.785 34.133 35.785h85.333c28.331 0 51.2-23.976 51.2-53.679v-35.785c0-29.7-22.869-53.675-51.2-53.675zM546.133 522.321h-68.267v-35.785h68.267v35.785zM297.396 409.003l11.449-33.399c3.037-8.589 10.748-14.315 19.86-14.076 14.487 0 24.533 14.554 19.627 28.39l-57.011 163.657c-4.907 13.36-17.29 22.425-31.309 22.425s-26.403-9.065-31.076-22.664l-57.011-163.657c-4.907-13.837 5.14-28.39 19.627-28.39 8.879 0 16.589 5.726 19.627 14.315l11.449 33.399h74.769zM260.129 522.321l17.893-71.569h-35.785l17.892 71.569zM640 170.667c0 82.432 66.901 149.333 149.333 149.333s149.333-66.901 149.333-149.333c0-82.432-66.901-149.333-149.333-149.333s-149.333 66.901-149.333 149.333zM733.333 264c-10.308 0-18.667-8.358-18.667-18.667s8.358-18.667 18.667-18.667h112c10.308 0 18.667 8.358 18.667 18.667s-8.358 18.667-18.667 18.667h-112zM714.667 170.667c0 10.308 8.358 18.667 18.667 18.667h112c10.308 0 18.667-8.358 18.667-18.667s-8.358-18.667-18.667-18.667h-112c-10.308 0-18.667 8.358-18.667 18.667zM733.333 114.667c-10.308 0-18.667-8.358-18.667-18.667s8.358-18.667 18.667-18.667h112c10.308 0 18.667 8.358 18.667 18.667s-8.358 18.667-18.667 18.667h-112z" />
<glyph unicode="&#xe915;" glyph-name="api_management" d="M981.333 305.626v441.041c0 46.933-38.4 85.333-85.333 85.333h-768c-46.933 0-85.333-38.4-85.333-85.333v-597.333c0-46.933 38.4-85.333 85.333-85.333h452.254c-13.295 26.010-21.884 54.831-24.631 85.333h-384.956c-23.467 0-42.667 19.2-42.667 42.667v426.667h768v-238.921c34.125-17.446 63.415-42.999 85.333-74.121zM906.573 165.282c0-5.261-0.465-10.214-1.084-15.164l32.644-25.527c2.94-2.321 3.716-6.498 1.856-9.903l-30.942-53.534c-1.856-3.405-5.879-4.796-9.438-3.405l-38.524 15.471c-8.047-6.033-16.713-11.294-26.15-15.159l-5.879-41.003c-0.465-3.712-3.712-6.498-7.582-6.498h-61.888c-3.866 0-7.117 2.786-7.578 6.498l-5.879 41.003c-9.438 3.866-18.103 8.973-26.15 15.159l-38.524-15.471c-3.405-1.237-7.582 0-9.438 3.405l-30.946 53.534c-1.856 3.405-1.079 7.582 1.86 9.903l32.644 25.527c-0.619 4.949-1.084 10.057-1.084 15.164 0 5.103 0.465 10.21 1.084 15.159l-32.644 25.532c-2.94 2.321-3.87 6.498-1.86 9.899l30.946 53.534c1.856 3.405 5.879 4.796 9.438 3.405l38.524-15.471c8.047 6.033 16.713 11.294 26.15 15.159l5.879 41.003c0.461 3.712 3.712 6.498 7.578 6.498h61.888c3.87 0 7.117-2.786 7.582-6.498l5.879-41.003c9.438-3.866 18.103-8.973 26.15-15.159l38.524 15.471c3.405 1.237 7.582 0 9.438-3.405l30.942-53.534c1.86-3.401 1.084-7.578-1.856-9.899l-32.644-25.532c0.619-4.949 1.084-9.899 1.084-15.159zM736.371 165.278c0-29.858 24.29-54.148 54.153-54.148s54.153 24.29 54.153 54.148c0 29.862-24.29 54.153-54.153 54.153s-54.153-24.29-54.153-54.153zM736 389.333c0-14.579-12.087-26.667-26.667-26.667s-26.667 12.087-26.667 26.667v160c0 14.578 12.087 26.667 26.667 26.667s26.667-12.089 26.667-26.667v-160zM546.133 432.862h-68.267v-44.732c0-14.673-11.605-26.842-25.6-26.842s-25.6 12.169-25.6 26.842v152.085c0 19.682 15.36 35.785 34.133 35.785h85.333c28.331 0 51.2-23.976 51.2-53.679v-35.785c0-29.7-22.869-53.675-51.2-53.675zM546.133 522.321h-68.267v-35.785h68.267v35.785zM297.396 409.003l11.449-33.399c3.037-8.589 10.748-14.315 19.86-14.076 14.487 0 24.533 14.554 19.627 28.39l-57.011 163.657c-4.907 13.36-17.29 22.425-31.309 22.425s-26.403-9.065-31.076-22.664l-57.011-163.657c-4.907-13.837 5.14-28.39 19.627-28.39 8.879 0 16.589 5.726 19.627 14.315l11.449 33.399h74.769zM260.129 522.321l17.893-71.569h-35.785l17.892 71.569z" />
<glyph unicode="&#xe916;" glyph-name="assignment_org_sme" d="M810.667 789.333h-178.347c-17.92 49.493-64.853 85.333-120.32 85.333s-102.4-35.84-120.32-85.333h-178.347c-46.933 0-85.333-38.4-85.333-85.333v-597.333c0-46.933 38.4-85.333 85.333-85.333h597.333c46.933 0 85.333 38.4 85.333 85.333v597.333c0 46.933-38.4 85.333-85.333 85.333zM512 789.333c23.467 0 42.667-19.2 42.667-42.667s-19.2-42.667-42.667-42.667c-23.467 0-42.667 19.2-42.667 42.667s19.2 42.667 42.667 42.667zM284.445 547.555c0-15.643 12.8-28.443 28.444-28.443h398.224c15.642 0 28.442 12.8 28.442 28.443 0 15.645-12.8 28.445-28.442 28.445h-398.224c-15.644 0-28.444-12.8-28.444-28.445zM716.233 490.667c13.653 0 25.314-9.673 27.874-22.754l23.893-119.467v-28.446c0-15.646-12.8-28.446-28.446-28.446v-142.221c0-15.646-12.8-28.446-28.442-28.446-15.646 0-28.446 12.8-28.446 28.446v142.221h-113.779v-142.221c0-15.646-12.8-28.446-28.442-28.446h-227.557c-15.644 0-28.444 12.8-28.444 28.446v142.221c-15.645 0-28.445 12.8-28.445 28.446v28.446l23.893 119.467c2.56 13.082 14.222 22.754 27.875 22.754h408.464zM341.333 177.779h170.667v113.775h-170.667v-113.775z" />
<glyph unicode="&#xe917;" glyph-name="assignment_org" d="M810.667 789.333c46.933 0 85.333-38.4 85.333-85.333v-597.333c0-46.933-38.4-85.333-85.333-85.333h-597.333c-46.933 0-85.333 38.4-85.333 85.333v597.333c0 46.933 38.4 85.333 85.333 85.333h178.347c17.92 49.493 64.853 85.333 120.32 85.333s102.4-35.84 120.32-85.333h178.347zM512 789.333c-23.467 0-42.667-19.2-42.667-42.667s19.2-42.667 42.667-42.667c23.467 0 42.667 19.2 42.667 42.667s-19.2 42.667-42.667 42.667zM591.987 389.845v137.839c0 14.132-5.598 27.729-15.731 37.594l-45.589 45.591c-4.983 4.992-11.746 7.798-18.799 7.798-7.049 0-13.811-2.806-18.795-7.798l-45.325-45.324c-10.129-10.131-15.727-23.728-15.727-37.86v-31.194h-106.647c-29.327 0-53.322-23.996-53.322-53.321v-266.611c0-29.329 23.995-53.325 53.322-53.325h373.258c29.325 0 53.321 23.996 53.321 53.325v159.966c0 29.329-23.996 53.321-53.321 53.321h-106.645zM378.694 176.555v53.325h-53.322v-53.325h53.322zM325.371 283.2v53.321h53.322v-53.321h-53.322zM378.694 389.85v53.321h-53.322v-53.321h53.322zM485.338 176.555v53.325h53.325v-53.325h-53.325zM538.662 283.2v53.321h-53.325v-53.321h53.325zM485.338 389.85v53.321h53.325v-53.321h-53.325zM538.662 496.491v53.323h-53.325v-53.323h53.325zM645.308 176.555v53.325h53.321v-53.325h-53.321zM698.628 283.2v53.321h-53.321v-53.321h53.321z" />
<glyph unicode="&#xe918;" glyph-name="beenhere" d="M213.333 912.958h597.333c46.933 0 85.333-38.4 85.333-85.333v-551.678c0-29.44-14.933-55.467-37.547-70.827l-322.56-215.040c-14.507-9.387-32.853-9.387-47.36 0l-322.987 215.040c-22.613 15.36-37.547 41.387-37.547 70.827l0.427 551.678c0 46.933 37.973 85.333 84.907 85.333zM456.96 303.253l323.84 323.838c16.64 16.64 16.213 43.52-0.427 60.16s-43.52 16.64-60.16 0l-293.547-293.545-122.88 122.88c-16.64 16.64-43.52 16.64-60.16 0s-16.64-43.52 0-60.16l153.173-153.173c16.64-16.64 43.52-16.64 60.16 0z" />
<glyph unicode="&#xe919;" glyph-name="custom_bill_outlined" d="M405.333 511.979h106.667c23.565 0 42.667 19.102 42.667 42.665s-19.102 42.667-42.667 42.667h-42.667v21.333c0 23.564-19.102 42.667-42.667 42.667s-42.667-19.102-42.667-42.667v-23.467c-53.705-10.905-90.408-60.73-84.901-115.254s51.434-96 106.234-95.945h42.667c11.78 0 21.333-9.553 21.333-21.333 0-11.785-9.553-21.333-21.333-21.333h-106.667c-23.564 0-42.667-19.102-42.667-42.667s19.102-42.667 42.667-42.667h42.667v-21.333c0-23.565 19.102-42.667 42.667-42.667s42.667 19.102 42.667 42.667v23.467c53.705 10.906 90.406 60.727 84.898 115.251-5.504 54.524-51.43 96.004-106.231 95.949h-42.667c-11.782 0-21.333 9.549-21.333 21.333 0 11.78 9.551 21.333 21.333 21.333zM896 447.987h-128v384c0.060 15.304-8.081 29.468-21.333 37.12-13.201 7.622-29.466 7.622-42.667 0l-128-73.387-128 73.387c-13.201 7.622-29.465 7.622-42.666 0l-128-73.387-128 73.387c-13.201 7.622-29.466 7.622-42.667 0-13.254-7.652-21.394-21.816-21.333-37.12v-682.666c0-70.694 57.307-128 128-128h597.333c70.694 0 128 57.306 128 128v256c0 23.565-19.102 42.667-42.667 42.667zM213.333 106.645c-23.564 0-42.667 19.102-42.667 42.667v608.852l85.333-48.64c13.366-6.981 29.301-6.981 42.667 0l128 73.387 128-73.387c13.367-6.981 29.299-6.981 42.667 0l85.333 48.64v-608.852c0.115-14.558 2.714-28.988 7.68-42.667h-477.013zM853.333 149.321c0-23.565-19.102-42.667-42.667-42.667s-42.667 19.102-42.667 42.667v213.333h85.333v-213.333z" />
<glyph unicode="&#xe91a;" glyph-name="custom_billing" d="M469.333 576.021h170.667c23.565 0 42.667 19.103 42.667 42.667s-19.102 42.667-42.667 42.667h-85.333v42.667c0 23.564-19.102 42.667-42.667 42.667s-42.667-19.102-42.667-42.667v-42.667c-70.692 0-128-57.307-128-128 0-70.694 57.307-128 128-128h85.333c23.565 0 42.667-19.102 42.667-42.667s-19.102-42.667-42.667-42.667h-170.666c-23.564 0-42.667-19.102-42.667-42.667s19.102-42.667 42.667-42.667h85.333v-42.667c0-23.565 19.102-42.667 42.667-42.667s42.667 19.102 42.667 42.667v42.667c70.694 0 128 57.306 128 128 0 70.69-57.306 128-128 128h-85.333c-23.565 0-42.667 19.102-42.667 42.666s19.102 42.667 42.667 42.667zM512 917.344c-259.206 0-469.333-210.128-469.333-469.335 0-259.204 210.128-469.333 469.333-469.333 259.204 0 469.333 210.129 469.333 469.333 0 124.477-49.446 243.854-137.463 331.871s-207.394 137.464-331.87 137.464zM512 64c-212.078 0-384 171.921-384 384 0 212.077 171.923 384 384 384 212.079 0 384-171.923 384-384 0-212.079-171.921-384-384-384z" />
<glyph unicode="&#xe91b;" glyph-name="custom_file_bookmark" d="M319.999 533.333h42.667c23.564 0 42.667 19.102 42.667 42.667s-19.102 42.667-42.667 42.667h-42.667c-23.564 0-42.667-19.103-42.667-42.667s19.103-42.667 42.667-42.667zM490.667 277.333h-170.668c-23.564 0-42.667-19.102-42.667-42.667 0-23.561 19.103-42.667 42.667-42.667h170.668c23.565 0 42.667 19.106 42.667 42.667 0 23.565-19.102 42.667-42.667 42.667zM490.667 448h-170.668c-23.564 0-42.667-19.102-42.667-42.667s19.103-42.667 42.667-42.667h170.668c23.565 0 42.667 19.102 42.667 42.667s-19.102 42.667-42.667 42.667zM785.92 559.787c6.682 15.889 3.145 34.237-8.96 46.507l-256 256c-3.529 3.319-7.561 6.055-11.947 8.107-1.271 0.181-2.564 0.181-3.84 0l-11.947 4.267h-258.56c-70.692 0-128-57.308-128-128v-597.333c0-70.694 57.308-128 128-128h256c23.565 0 42.667 19.102 42.667 42.667s-19.102 42.667-42.667 42.667h-256c-23.564 0-42.667 19.102-42.667 42.667v597.333c0 23.564 19.103 42.667 42.667 42.667h213.333v-128c0-70.692 57.306-128 128-128h170.667c17.225 0.086 32.708 10.52 39.253 26.453zM576 618.668c-23.565 0-42.667 19.103-42.667 42.667v67.84l110.507-110.507h-67.84zM874.667 448h-213.333c-23.565 0-42.667-19.102-42.667-42.667v-341.333c0.043-15.727 8.734-30.157 22.613-37.547 13.581-6.976 29.85-6.161 42.667 2.133l84.053 55.467 85.333-55.467c12.966-7.501 28.911-7.65 42.018-0.401 13.103 7.253 21.449 20.847 21.982 35.814v341.333c0 23.565-19.102 42.667-42.667 42.667zM832 144.213l-40.107 26.88c-14.434 9.758-33.353 9.758-47.787 0l-40.107-26.88v218.453h128v-218.453z" />
<glyph unicode="&#xe91d;" glyph-name="custom_home" d="M917.333 149.333v261.257c0 60.723 0 91.085-7.77 119.087-6.886 24.802-18.202 48.155-33.404 68.928-17.161 23.449-40.994 42.263-88.653 79.89v0.001l-64 50.527c-75.563 59.653-113.344 89.48-155.157 100.931-36.885 10.103-75.814 10.103-112.7 0-41.814-11.451-79.594-41.278-155.155-100.931l-64-50.526c-47.662-37.628-71.493-56.442-88.653-79.891-15.202-20.773-26.519-44.126-33.403-68.928-7.772-28.002-7.772-58.364-7.772-119.087v-261.257c0-39.761 0-59.639 6.496-75.324 8.661-20.907 25.273-37.521 46.182-46.182 15.682-6.494 35.562-6.494 75.322-6.494h37.333c4.952 0 7.428 0 9.521 0.102 43.836 2.155 78.89 37.21 81.043 81.045 0.103 2.091 0.103 4.565 0.103 9.519v122.667c0 82.475 66.859 149.333 149.333 149.333s149.333-66.859 149.333-149.333v-122.667c0-4.954 0-7.428 0.102-9.519 2.155-43.836 37.21-78.891 81.045-81.045 2.091-0.102 4.565-0.102 9.519-0.102h37.333c39.761 0 59.639 0 75.324 6.494 20.907 8.661 37.521 25.276 46.182 46.182 6.494 15.684 6.494 35.563 6.494 75.324z" />
<glyph unicode="&#xe91e;" glyph-name="custom_signature" d="M213.334 191.996h180.907c11.341-0.064 22.241 4.39 30.293 12.373l295.253 295.68 121.173 118.615c8.077 8.012 12.621 18.917 12.621 30.293s-4.544 22.282-12.621 30.293l-180.907 183.040c-8.013 8.077-18.918 12.621-30.293 12.621s-22.281-4.544-30.293-12.621l-120.32-120.747-296.106-295.682c-7.987-8.051-12.439-18.953-12.373-30.293v-180.907c0-23.561 19.102-42.667 42.667-42.667zM629.76 771.84l120.747-120.747-60.587-60.587-120.747 120.747 60.587 60.587zM256 398.076l253.013 253.013 120.747-120.746-253.013-253.013h-120.747v120.747zM885.76 143.223c-14.959-4.617-29.291-11.063-42.667-19.2-27.674-16.183-61.926-16.183-89.6 0-60.16 33.745-133.547 33.745-193.707 0-27.964-16.247-62.49-16.247-90.453 0-60.16 33.745-133.547 33.745-193.707 0-27.674-16.183-61.926-16.183-89.6 0-13.376 8.137-27.707 14.583-42.667 19.2-11.298 4.267-23.874 3.546-34.609-1.988-10.735-5.53-18.624-15.347-21.711-27.025-3.168-10.863-1.892-22.541 3.549-32.461 5.441-9.924 14.601-17.276 25.464-20.446 8.344-2.449 16.365-5.888 23.893-10.24 53.878-32.158 121.056-32.158 174.933 0 33.887 19.166 75.34 19.166 109.227 0 54.46-31.138 121.327-31.138 175.787 0 33.886 19.166 75.341 19.166 109.227 0 27.038-15.454 57.604-23.68 88.747-23.893 30.089 0.064 59.588 8.324 85.333 23.893 7.526 4.352 15.548 7.791 23.893 10.24 22.622 6.601 35.61 30.285 29.013 52.907s-30.285 35.614-52.907 29.013h2.56z" />
<glyph unicode="&#xe91f;" glyph-name="custom_user_check" d="M567.467 438.605c46.063 39.872 72.533 97.792 72.533 158.718 0 117.821-95.514 213.333-213.333 213.333s-213.333-95.513-213.333-213.333c-0.001-60.926 26.468-118.846 72.533-158.718-121.987-55.241-200.405-176.704-200.533-310.613 0-23.565 19.103-42.667 42.667-42.667s42.667 19.102 42.667 42.667c0 141.385 114.615 256 256 256s256-114.615 256-256c0-23.565 19.102-42.667 42.667-42.667s42.667 19.102 42.667 42.667c-0.128 133.909-78.545 255.373-200.533 310.613zM426.666 469.312c-70.692 0-128 57.31-128 128 0 70.692 57.308 128 128 128 70.691 0 128-57.308 128-128 0-33.948-13.487-66.505-37.491-90.509s-56.563-37.491-90.509-37.491zM926.293 570.435c-8.013 8.078-18.918 12.621-30.293 12.621s-22.281-4.543-30.293-12.621l-85.333-85.332-26.453 26.88c-8.013 8.077-18.918 12.621-30.293 12.621s-22.281-4.544-30.293-12.621c-16.542-16.644-16.542-43.52 0-60.16l57.173-57.173c16.64-16.546 43.52-16.546 60.16 0l113.92 113.92c8.704 7.817 13.82 18.867 14.14 30.565 0.324 11.697-4.173 23.013-12.433 31.3z" />
<glyph unicode="&#xe920;" glyph-name="custom_user_verify" d="M128 576c23.564 0 42.667 19.102 42.667 42.667v128c0 23.564 19.103 42.667 42.667 42.667h128c23.564 0 42.667 19.102 42.667 42.667s-19.102 42.667-42.667 42.667h-128c-70.692 0-128-57.308-128-128v-128c0-23.564 19.103-42.667 42.667-42.667zM341.333 106.667h-128c-23.564 0-42.667 19.102-42.667 42.667v128c0 23.565-19.102 42.667-42.667 42.667s-42.667-19.102-42.667-42.667v-128c0-70.694 57.308-128 128-128h128c23.564 0 42.667 19.102 42.667 42.667s-19.102 42.667-42.667 42.667zM896 320c-23.565 0-42.667-19.102-42.667-42.667v-128c0-23.565-19.102-42.667-42.667-42.667h-128c-23.565 0-42.667-19.102-42.667-42.667s19.102-42.667 42.667-42.667h128c70.694 0 128 57.306 128 128v128c0 23.565-19.102 42.667-42.667 42.667zM810.667 874.667h-128c-23.565 0-42.667-19.103-42.667-42.667s19.102-42.667 42.667-42.667h128c23.565 0 42.667-19.103 42.667-42.667v-128c0-23.564 19.102-42.667 42.667-42.667s42.667 19.102 42.667 42.667v128c0 70.692-57.306 128-128 128zM631.893 436.053c27.008 29.005 42.223 67.038 42.667 106.667 0 89.073-72.205 161.28-161.28 161.28-89.072 0-161.279-72.207-161.279-161.28 0.445-39.629 15.66-77.662 42.667-106.667-76.389-38.037-128.506-111.966-138.667-196.693-2.592-23.565 14.409-44.766 37.973-47.36s44.768 14.409 47.36 37.973c10.536 85.542 83.198 149.803 169.386 149.803 86.191 0 158.852-64.26 169.387-149.803 2.466-22.733 22.413-39.479 45.227-37.973h4.693c23.283 2.679 40.043 23.633 37.547 46.933-9.404 84.267-60.326 158.246-135.68 197.12zM512 466.769c-30.716 0-58.411 18.505-70.165 46.886-11.755 28.378-5.257 61.044 16.465 82.765 21.717 21.72 54.387 28.218 82.765 16.463s46.882-39.448 46.882-70.165c0-41.943-34.001-75.949-75.947-75.949z" />
<glyph unicode="&#xe925;" glyph-name="identity_accepted" d="M378.667 128h-195.555c-53.938 0-97.778 43.84-97.778 97.779v551.11c0 53.938 43.84 97.778 97.778 97.778h408.889c53.939 0 97.779-43.84 97.779-97.778v-197.689c0-14.72-11.947-26.667-26.667-26.667s-26.667 11.947-26.667 26.667v197.689c0 24.498-19.947 44.445-44.446 44.445h-408.889c-24.498 0-44.445-19.947-44.445-44.445v-551.11c0-24.499 19.947-44.446 44.445-44.446h195.555c14.72 0 26.667-11.947 26.667-26.667s-11.947-26.667-26.667-26.667zM254.229 341.333h145.422c14.72 0 26.667 11.947 26.667 26.667s-11.947 26.667-26.667 26.667h-145.422c-14.72 0-26.667-11.947-26.667-26.667s11.947-26.667 26.667-26.667zM254.229 234.667h124.444c14.72 0 26.667 11.947 26.667 26.667s-11.947 26.667-26.667 26.667h-124.444c-14.72 0-26.667-11.947-26.667-26.667s11.947-26.667 26.667-26.667zM458.658 696.889c0-39.274-31.838-71.111-71.11-71.111-39.274 0-71.111 31.837-71.111 71.111s31.837 71.111 71.111 71.111c39.272 0 71.11-31.837 71.11-71.111zM503.113 447.996h-231.113c-14.72 0-26.667 11.947-26.667 26.667v17.779c0 53.937 43.84 97.777 97.777 97.777h88.889c53.939 0 97.779-43.84 97.779-97.777v-17.779c0-14.72-11.947-26.667-26.667-26.667zM704 21.333c129.604 0 234.667 105.062 234.667 234.667s-105.062 234.667-234.667 234.667c-129.604 0-234.667-105.062-234.667-234.667s105.062-234.667 234.667-234.667zM824.64 371.456l-199.121-199.121 33.186-33.186 199.121 199.121-33.186 33.186zM658.705 205.525l-82.965 82.965-33.186-33.186 82.965-82.965 33.186 33.186z" />
<glyph unicode="&#xe926;" glyph-name="identity_manage" d="M183.111 128h195.555c14.72 0 26.667 11.947 26.667 26.667s-11.947 26.667-26.667 26.667h-195.555c-24.498 0-44.445 19.947-44.445 44.446v551.11c0 24.498 19.947 44.445 44.445 44.445h408.889c24.499 0 44.446-19.947 44.446-44.445v-197.689c0-14.72 11.947-26.667 26.667-26.667s26.667 11.947 26.667 26.667v197.689c0 53.938-43.84 97.778-97.779 97.778h-408.889c-53.938 0-97.778-43.84-97.778-97.778v-551.11c0-53.939 43.84-97.779 97.778-97.779zM399.651 341.333h-145.422c-14.72 0-26.667 11.947-26.667 26.667s11.947 26.667 26.667 26.667h145.422c14.72 0 26.667-11.947 26.667-26.667s-11.947-26.667-26.667-26.667zM378.673 234.667h-124.444c-14.72 0-26.667 11.947-26.667 26.667s11.947 26.667 26.667 26.667h124.444c14.72 0 26.667-11.947 26.667-26.667s-11.947-26.667-26.667-26.667zM387.549 625.778c39.272 0 71.11 31.837 71.11 71.111s-31.838 71.111-71.11 71.111c-39.274 0-71.111-31.837-71.111-71.111s31.837-71.111 71.111-71.111zM272 447.996h231.113c14.72 0 26.667 11.947 26.667 26.667v17.779c0 53.937-43.84 97.777-97.779 97.777h-88.889c-53.937 0-97.777-43.84-97.777-97.777v-17.779c0-14.72 11.947-26.667 26.667-26.667zM884.992 206.75c0-8.201-0.725-15.923-1.69-23.642l50.901-39.808c4.587-3.618 5.79-10.133 2.897-15.437l-48.252-83.473c-2.893-5.308-9.165-7.479-14.716-5.308l-60.070 24.124c-12.544-9.408-26.057-17.613-40.772-23.642l-9.165-63.932c-0.725-5.79-5.79-10.133-11.823-10.133h-96.499c-6.033 0-11.098 4.343-11.823 10.133l-9.165 63.932c-14.716 6.029-28.228 13.99-40.772 23.642l-60.070-24.124c-5.308-1.933-11.823 0-14.716 5.308l-48.252 83.473c-2.893 5.303-1.69 11.819 2.897 15.437l50.901 39.808c-0.964 7.718-1.69 15.68-1.69 23.642s0.725 15.923 1.69 23.642l-50.901 39.808c-4.587 3.618-6.033 10.133-2.897 15.441l48.252 83.469c2.893 5.308 9.165 7.479 14.716 5.308l60.070-24.124c12.544 9.408 26.057 17.613 40.772 23.642l9.165 63.932c0.725 5.79 5.79 10.133 11.823 10.133h96.499c6.033 0 11.098-4.343 11.823-10.133l9.165-63.932c14.716-6.029 28.228-13.99 40.772-23.642l60.070 24.124c5.308 1.933 11.823 0 14.716-5.308l48.252-83.469c2.893-5.308 1.69-11.823-2.897-15.441l-50.901-39.808c0.964-7.718 1.69-15.437 1.69-23.642zM619.61 206.75c0-46.562 37.875-84.437 84.437-84.437 46.558 0 84.437 37.875 84.437 84.437s-37.879 84.437-84.437 84.437c-46.562 0-84.437-37.875-84.437-84.437z" />
<glyph unicode="&#xe927;" glyph-name="identity-change_request" d="M378.667 128h-195.555c-53.938 0-97.778 43.84-97.778 97.779v551.11c0 53.938 43.84 97.778 97.778 97.778h408.889c53.939 0 97.779-43.84 97.779-97.778v-197.689c0-14.72-11.947-26.667-26.667-26.667s-26.667 11.947-26.667 26.667v197.689c0 24.498-19.947 44.445-44.446 44.445h-408.889c-24.498 0-44.445-19.947-44.445-44.445v-551.11c0-24.499 19.947-44.446 44.445-44.446h195.555c14.72 0 26.667-11.947 26.667-26.667s-11.947-26.667-26.667-26.667zM254.229 341.333h145.422c14.72 0 26.667 11.947 26.667 26.667s-11.947 26.667-26.667 26.667h-145.422c-14.72 0-26.667-11.947-26.667-26.667s11.947-26.667 26.667-26.667zM254.229 234.667h124.444c14.72 0 26.667 11.947 26.667 26.667s-11.947 26.667-26.667 26.667h-124.444c-14.72 0-26.667-11.947-26.667-26.667s11.947-26.667 26.667-26.667zM458.658 696.889c0-39.274-31.838-71.111-71.11-71.111-39.274 0-71.111 31.837-71.111 71.111s31.837 71.111 71.111 71.111c39.272 0 71.11-31.837 71.11-71.111zM503.113 447.996h-231.113c-14.72 0-26.667 11.947-26.667 26.667v17.779c0 53.937 43.84 97.777 97.777 97.777h88.889c53.939 0 97.779-43.84 97.779-97.777v-17.779c0-14.72-11.947-26.667-26.667-26.667zM469.333 234.667c0 117.76 95.573 213.333 213.333 213.333s213.333-95.573 213.333-213.333c0-117.76-95.573-213.333-213.333-213.333s-213.333 95.573-213.333 213.333zM661.333 128v-42.667h42.667v42.667h-42.667zM748.16 250.667l-19.2-19.627c-15.36-15.573-24.96-28.373-24.96-60.373h-42.667v10.667c0 23.467 9.6 44.8 24.96 60.373l26.453 26.88c7.893 7.68 12.587 18.347 12.587 30.080 0 23.467-19.2 42.667-42.667 42.667s-42.667-19.2-42.667-42.667h-42.667c0 47.147 38.187 85.333 85.333 85.333s85.333-38.187 85.333-85.333c0-18.773-7.68-35.84-19.84-48z" />
<glyph unicode="&#xe928;" glyph-name="identity-rejected" d="M183.111 128h195.555c14.72 0 26.667 11.947 26.667 26.667s-11.947 26.667-26.667 26.667h-195.555c-24.498 0-44.445 19.947-44.445 44.446v551.11c0 24.498 19.947 44.445 44.445 44.445h408.889c24.499 0 44.446-19.947 44.446-44.445v-197.689c0-14.72 11.947-26.667 26.667-26.667s26.667 11.947 26.667 26.667v197.689c0 53.938-43.84 97.778-97.779 97.778h-408.889c-53.938 0-97.778-43.84-97.778-97.778v-551.11c0-53.939 43.84-97.779 97.778-97.779zM476.446 252.442c0 127.433 103.68 231.113 231.113 231.113s231.113-103.68 231.113-231.113c0-127.433-103.68-231.113-231.113-231.113s-231.113 103.68-231.113 231.113zM812.553 395.127c-29.508 21.794-65.6 35.093-104.994 35.093-98.027 0-177.779-79.753-177.779-177.779 0-39.394 13.299-75.486 35.059-104.994l247.714 247.68zM602.564 109.756c29.508-21.794 65.6-35.093 104.994-35.093 98.027 0 177.779 79.753 177.779 177.779 0 39.394-13.299 75.486-35.059 104.994l-247.714-247.68zM254.219 341.333h145.423c14.72 0 26.667 11.947 26.667 26.667s-11.947 26.667-26.667 26.667h-145.423c-14.72 0-26.667-11.947-26.667-26.667s11.947-26.667 26.667-26.667zM378.663 234.667h-124.445c-14.72 0-26.667 11.947-26.667 26.667s11.947 26.667 26.667 26.667h124.445c14.72 0 26.667-11.947 26.667-26.667s-11.947-26.667-26.667-26.667zM387.559 625.778c39.274 0 71.112 31.837 71.112 71.111s-31.838 71.111-71.112 71.111c-39.273 0-71.111-31.837-71.111-71.111s31.837-71.111 71.111-71.111zM272 447.996h231.113c14.72 0 26.667 11.947 26.667 26.667v17.779c0 53.937-43.84 97.777-97.779 97.777h-88.889c-53.937 0-97.777-43.84-97.777-97.777v-17.779c0-14.72 11.947-26.667 26.667-26.667z" />
<glyph unicode="&#xe929;" glyph-name="identity-request" d="M450.846 128h-267.735c-53.938 0-97.778 43.84-97.778 97.779v551.11c0 53.938 43.84 97.778 97.778 97.778h408.889c53.939 0 97.779-43.84 97.779-97.778v-231.822c0-14.72-11.947-26.667-26.667-26.667s-26.667 11.947-26.667 26.667v231.822c0 24.498-19.947 44.445-44.446 44.445h-408.889c-24.498 0-44.445-19.947-44.445-44.445v-551.11c0-24.499 19.947-44.446 44.445-44.446h267.735c14.72 0 26.667-11.947 26.667-26.667s-11.947-26.667-26.667-26.667zM387.549 625.778c39.272 0 71.11 31.837 71.11 71.111s-31.838 71.111-71.11 71.111c-39.274 0-71.111-31.837-71.111-71.111s31.837-71.111 71.111-71.111zM254.229 341.333h160c14.72 0 26.667 11.947 26.667 26.667s-11.947 26.667-26.667 26.667h-160c-14.72 0-26.667-11.947-26.667-26.667s11.947-26.667 26.667-26.667zM254.229 234.667h142.933c14.72 0 26.667 11.947 26.667 26.667s-11.947 26.667-26.667 26.667h-142.933c-14.72 0-26.667-11.947-26.667-26.667s11.947-26.667 26.667-26.667zM272 447.996h231.113c14.72 0 26.667 11.947 26.667 26.667v17.779c0 53.937-43.84 97.777-97.779 97.777h-88.889c-53.937 0-97.777-43.84-97.777-97.777v-17.779c0-14.72 11.947-26.667 26.667-26.667zM832.461 165.227l98.385-98.381c10.415-10.419 10.453-27.273 0.034-37.692-10.419-10.415-27.307-10.415-37.726 0l-98.381 98.385c-29.513-21.798-65.6-35.093-104.994-35.093-98.027 0-177.779 79.748-177.779 177.775s79.753 177.779 177.779 177.779c98.027 0 177.775-79.753 177.775-177.779 0-39.394-13.295-75.482-35.093-104.994zM689.779 394.667c-68.625 0-124.446-55.821-124.446-124.446 0-68.621 55.821-124.442 124.446-124.442 68.621 0 124.442 55.821 124.442 124.442 0 68.625-55.821 124.446-124.442 124.446z" />
<glyph unicode="&#xe92a;" glyph-name="invoice_add" d="M896 865.709l-0.427-0.004v0.004h0.427zM895.573 865.705c-5.402-0.107-10.765-2.239-14.507-6.396l-33.707-33.707c-8.533-8.533-21.76-8.533-30.293 0l-33.707 33.707c-8.533 8.533-21.76 8.533-30.293 0l-33.707-33.707c-8.533-8.533-21.76-8.533-30.293 0l-33.707 33.707c-8.533 8.533-21.76 8.533-30.293 0l-33.707-33.707c-8.533-8.533-21.76-8.533-30.293 0l-33.707 33.707c-8.533 8.533-21.76 8.533-30.293 0l-33.707-33.707c-8.533-8.533-21.76-8.533-30.293 0l-34.133 34.133c-8.533 8.533-21.76 8.533-30.293 0l-33.707-34.133c-8.533-8.533-21.76-8.533-30.293 0l-33.707 34.133c-8.533 8.533-21.76 8.533-30.293 0l-33.707-34.133c-8.533-8.533-21.76-8.533-30.293 0l-33.707 34.133c-3.84 3.84-9.387 5.973-14.933 5.973v-835.842c5.547 0 11.093 2.133 14.933 6.4l33.707 33.707c8.533 8.533 21.76 8.533 30.293 0l33.707-33.707c8.533-8.533 21.76-8.533 30.293 0l33.707 33.707c8.533 8.533 21.76 8.533 30.293 0l33.707-33.707c8.533-8.533 21.76-8.533 30.293 0l33.707 33.707c8.533 8.533 21.76 8.533 30.293 0l33.707-33.707c8.533-8.533 21.76-8.533 30.293 0l33.707 33.707c8.533 8.533 21.76 8.533 30.293 0l33.707-33.707c5.355-5.355 12.561-7.347 19.294-5.982-29.269 39.151-46.601 87.74-46.601 140.382 0 129.604 105.062 234.667 234.667 234.667 22.033 0 43.354-3.038 63.573-8.713v469.084zM446.447 602.943v-104.285c52.275-14.814 108.22-36.143 108.22-106.061 0-52.143-31.083-101.321-108.22-106.654v-33.182c0-9.984-7.714-18.074-17.237-18.074-9.662-0.503-17.885 7.322-18.337 17.451 0 0.209-0.028 0.418-0.028 0.623v32.589c-39.247 1.331-76.771 17.182-105.96 44.736-4.012 4.267-6.244 10.014-6.216 15.996-0.169 13.687 9.862 25.126 22.888 26.074 5.143-0.119 10.116-1.984 14.128-5.333 21.305-18.782 47.3-30.78 74.878-34.662v118.507c-52.273 14.81-106.807 33.476-106.807 100.727 0 54.808 43.231 95.989 106.807 100.729v33.774c0.142 10.161 8.11 18.25 17.772 18.101 0.201 0 0.397 0 0.593-0.029 9.523 0 17.237-8.088 17.237-18.072v-34.959c32.58-1.955 63.663-15.079 88.444-37.329 4.011-4.266 6.242-10.014 6.212-15.998-0.141-13.954-10.991-25.182-24.299-25.182-4.151 0.058-8.166 1.392-11.584 3.851-17.152 13.746-37.214 22.9-58.492 26.663zM356.030 554.949c0-27.55 24.017-37.329 54.816-46.81v96.878c-33.059-2.665-54.816-22.515-54.816-50.068zM446.447 439.407v-107.84c41.822 5.333 56.512 31.996 56.512 54.515 0.282 31.104-24.58 43.844-56.512 53.325zM682.667 170.667c0 82.432 66.901 149.333 149.333 149.333s149.333-66.901 149.333-149.333c0-82.432-66.901-149.333-149.333-149.333s-149.333 66.901-149.333 149.333zM846.933 155.733h44.8c8.213 0 14.933 6.72 14.933 14.933s-6.72 14.933-14.933 14.933h-44.8v44.8c0 8.213-6.72 14.933-14.933 14.933s-14.933-6.72-14.933-14.933v-44.8h-44.8c-8.213 0-14.933-6.72-14.933-14.933s6.72-14.933 14.933-14.933h44.8v-44.8c0-8.213 6.72-14.933 14.933-14.933s14.933 6.72 14.933 14.933v44.8z" />
<glyph unicode="&#xe92b;" glyph-name="invoice_customer_add" d="M896 865.709h-0.427v-0.004l0.427 0.004zM895.573 865.705v-469.084c-20.22 5.675-41.54 8.713-63.573 8.713-129.604 0-234.667-105.062-234.667-234.667 0-52.642 17.331-101.231 46.601-140.382-6.733-1.365-13.939 0.627-19.294 5.982l-33.707 33.707c-8.533 8.533-21.76 8.533-30.293 0l-33.707-33.707c-8.533-8.533-21.76-8.533-30.293 0l-33.707 33.707c-8.533 8.533-21.76 8.533-30.293 0l-33.707-33.707c-8.533-8.533-21.76-8.533-30.293 0l-33.707 33.707c-8.533 8.533-21.76 8.533-30.293 0l-33.707-33.707c-8.533-8.533-21.76-8.533-30.293 0l-33.707 33.707c-8.533 8.533-21.76 8.533-30.293 0l-33.707-33.707c-3.84-4.267-9.387-6.4-14.933-6.4v835.842c5.547 0 11.093-2.133 14.933-5.973l33.707-34.133c8.533-8.533 21.76-8.533 30.293 0l33.707 34.133c8.533 8.533 21.76 8.533 30.293 0l33.707-34.133c8.533-8.533 21.76-8.533 30.293 0l33.707 34.133c8.533 8.533 21.76 8.533 30.293 0l34.133-34.133c8.533-8.533 21.76-8.533 30.293 0l33.707 33.707c8.533 8.533 21.76 8.533 30.293 0l33.707-33.707c8.533-8.533 21.76-8.533 30.293 0l33.707 33.707c8.533 8.533 21.76 8.533 30.293 0l33.707-33.707c8.533-8.533 21.76-8.533 30.293 0l33.707 33.707c8.533 8.533 21.76 8.533 30.293 0l33.707-33.707c8.533-8.533 21.76-8.533 30.293 0l33.707 33.707c3.742 4.157 9.105 6.289 14.507 6.396zM384 533.333c47.147 0 85.333 38.187 85.333 85.333s-38.187 85.333-85.333 85.333c-47.147 0-85.333-38.187-85.333-85.333s38.187-85.333 85.333-85.333zM384 490.667c-56.96 0-170.667-28.587-170.667-85.333v-21.333c0-11.733 9.6-21.333 21.333-21.333h298.667c11.733 0 21.333 9.6 21.333 21.333v21.333c0 56.747-113.707 85.333-170.667 85.333zM682.667 170.667c0 82.432 66.901 149.333 149.333 149.333s149.333-66.901 149.333-149.333c0-82.432-66.901-149.333-149.333-149.333s-149.333 66.901-149.333 149.333zM846.933 155.733h44.8c8.213 0 14.933 6.72 14.933 14.933s-6.72 14.933-14.933 14.933h-44.8v44.8c0 8.213-6.72 14.933-14.933 14.933s-14.933-6.72-14.933-14.933v-44.8h-44.8c-8.213 0-14.933-6.72-14.933-14.933s6.72-14.933 14.933-14.933h44.8v-44.8c0-8.213 6.72-14.933 14.933-14.933s14.933 6.72 14.933 14.933v44.8z" />
<glyph unicode="&#xe92c;" glyph-name="invoice_customer_list" d="M896 865.709h-0.427v-0.004l0.427 0.004zM895.573 865.705v-469.084c-20.22 5.675-41.54 8.713-63.573 8.713-129.604 0-234.667-105.062-234.667-234.667 0-52.642 17.331-101.231 46.601-140.382-6.733-1.365-13.939 0.627-19.294 5.982l-33.707 33.707c-8.533 8.533-21.76 8.533-30.293 0l-33.707-33.707c-8.533-8.533-21.76-8.533-30.293 0l-33.707 33.707c-8.533 8.533-21.76 8.533-30.293 0l-33.707-33.707c-8.533-8.533-21.76-8.533-30.293 0l-33.707 33.707c-8.533 8.533-21.76 8.533-30.293 0l-33.707-33.707c-8.533-8.533-21.76-8.533-30.293 0l-33.707 33.707c-8.533 8.533-21.76 8.533-30.293 0l-33.707-33.707c-3.84-4.267-9.387-6.4-14.933-6.4v835.842c5.547 0 11.093-2.133 14.933-5.973l33.707-34.133c8.533-8.533 21.76-8.533 30.293 0l33.707 34.133c8.533 8.533 21.76 8.533 30.293 0l33.707-34.133c8.533-8.533 21.76-8.533 30.293 0l33.707 34.133c8.533 8.533 21.76 8.533 30.293 0l34.133-34.133c8.533-8.533 21.76-8.533 30.293 0l33.707 33.707c8.533 8.533 21.76 8.533 30.293 0l33.707-33.707c8.533-8.533 21.76-8.533 30.293 0l33.707 33.707c8.533 8.533 21.76 8.533 30.293 0l33.707-33.707c8.533-8.533 21.76-8.533 30.293 0l33.707 33.707c8.533 8.533 21.76 8.533 30.293 0l33.707-33.707c8.533-8.533 21.76-8.533 30.293 0l33.707 33.707c3.742 4.157 9.105 6.289 14.507 6.396zM384 533.333c47.147 0 85.333 38.187 85.333 85.333s-38.187 85.333-85.333 85.333c-47.147 0-85.333-38.187-85.333-85.333s38.187-85.333 85.333-85.333zM384 490.667c-56.96 0-170.667-28.587-170.667-85.333v-21.333c0-11.733 9.6-21.333 21.333-21.333h298.667c11.733 0 21.333 9.6 21.333 21.333v21.333c0 56.747-113.707 85.333-170.667 85.333zM682.667 170.667c0 82.432 66.901 149.333 149.333 149.333s149.333-66.901 149.333-149.333c0-82.432-66.901-149.333-149.333-149.333s-149.333 66.901-149.333 149.333zM776 264c-10.308 0-18.667-8.358-18.667-18.667s8.358-18.667 18.667-18.667h112c10.308 0 18.667 8.358 18.667 18.667s-8.358 18.667-18.667 18.667h-112zM757.333 170.667c0 10.308 8.358 18.667 18.667 18.667h112c10.308 0 18.667-8.358 18.667-18.667s-8.358-18.667-18.667-18.667h-112c-10.308 0-18.667 8.358-18.667 18.667zM776 114.667c-10.308 0-18.667-8.358-18.667-18.667s8.358-18.667 18.667-18.667h112c10.308 0 18.667 8.358 18.667 18.667s-8.358 18.667-18.667 18.667h-112z" />
<glyph unicode="&#xe92d;" glyph-name="invoice_list" d="M896 865.709l-0.427-0.004v0.004h0.427zM895.573 865.705c-5.402-0.107-10.765-2.239-14.507-6.396l-33.707-33.707c-8.533-8.533-21.76-8.533-30.293 0l-33.707 33.707c-8.533 8.533-21.76 8.533-30.293 0l-33.707-33.707c-8.533-8.533-21.76-8.533-30.293 0l-33.707 33.707c-8.533 8.533-21.76 8.533-30.293 0l-33.707-33.707c-8.533-8.533-21.76-8.533-30.293 0l-33.707 33.707c-8.533 8.533-21.76 8.533-30.293 0l-33.707-33.707c-8.533-8.533-21.76-8.533-30.293 0l-34.133 34.133c-8.533 8.533-21.76 8.533-30.293 0l-33.707-34.133c-8.533-8.533-21.76-8.533-30.293 0l-33.707 34.133c-8.533 8.533-21.76 8.533-30.293 0l-33.707-34.133c-8.533-8.533-21.76-8.533-30.293 0l-33.707 34.133c-3.84 3.84-9.387 5.973-14.933 5.973v-835.842c5.547 0 11.093 2.133 14.933 6.4l33.707 33.707c8.533 8.533 21.76 8.533 30.293 0l33.707-33.707c8.533-8.533 21.76-8.533 30.293 0l33.707 33.707c8.533 8.533 21.76 8.533 30.293 0l33.707-33.707c8.533-8.533 21.76-8.533 30.293 0l33.707 33.707c8.533 8.533 21.76 8.533 30.293 0l33.707-33.707c8.533-8.533 21.76-8.533 30.293 0l33.707 33.707c8.533 8.533 21.76 8.533 30.293 0l33.707-33.707c5.355-5.355 12.561-7.347 19.294-5.982-29.269 39.151-46.601 87.74-46.601 140.382 0 129.604 105.062 234.667 234.667 234.667 22.033 0 43.354-3.038 63.573-8.713v469.084zM446.447 602.943v-104.285c52.275-14.814 108.22-36.143 108.22-106.061 0-52.143-31.083-101.321-108.22-106.654v-33.182c0-9.984-7.714-18.074-17.237-18.074-9.662-0.503-17.885 7.322-18.337 17.451 0 0.209-0.028 0.418-0.028 0.623v32.589c-39.247 1.331-76.771 17.182-105.96 44.736-4.012 4.267-6.244 10.014-6.216 15.996-0.169 13.687 9.862 25.126 22.888 26.074 5.143-0.119 10.116-1.984 14.128-5.333 21.305-18.782 47.3-30.78 74.878-34.662v118.507c-52.273 14.81-106.807 33.476-106.807 100.727 0 54.808 43.231 95.989 106.807 100.729v33.774c0.142 10.161 8.11 18.25 17.772 18.101 0.201 0 0.397 0 0.593-0.029 9.523 0 17.237-8.088 17.237-18.072v-34.959c32.58-1.955 63.663-15.079 88.444-37.329 4.011-4.266 6.242-10.014 6.212-15.998-0.141-13.954-10.991-25.182-24.299-25.182-4.151 0.058-8.166 1.392-11.584 3.851-17.152 13.746-37.214 22.9-58.492 26.663zM356.030 554.949c0-27.55 24.017-37.329 54.816-46.81v96.878c-33.059-2.665-54.816-22.515-54.816-50.068zM446.447 439.407v-107.84c41.822 5.333 56.512 31.996 56.512 54.515 0.282 31.104-24.58 43.844-56.512 53.325zM682.667 170.667c0 82.432 66.901 149.333 149.333 149.333s149.333-66.901 149.333-149.333c0-82.432-66.901-149.333-149.333-149.333s-149.333 66.901-149.333 149.333zM776 264c-10.308 0-18.667-8.358-18.667-18.667s8.358-18.667 18.667-18.667h112c10.308 0 18.667 8.358 18.667 18.667s-8.358 18.667-18.667 18.667h-112zM757.333 170.667c0 10.308 8.358 18.667 18.667 18.667h112c10.308 0 18.667-8.358 18.667-18.667s-8.358-18.667-18.667-18.667h-112c-10.308 0-18.667 8.358-18.667 18.667zM776 114.667c-10.308 0-18.667-8.358-18.667-18.667s8.358-18.667 18.667-18.667h112c10.308 0 18.667 8.358 18.667 18.667s-8.358 18.667-18.667 18.667h-112z" />
<glyph unicode="&#xe92e;" glyph-name="invoice_management" d="M896 865.709l-0.427-0.004v0.004h0.427zM895.573 865.705c-5.402-0.107-10.765-2.239-14.507-6.396l-33.707-33.707c-8.533-8.533-21.76-8.533-30.293 0l-33.707 33.707c-8.533 8.533-21.76 8.533-30.293 0l-33.707-33.707c-8.533-8.533-21.76-8.533-30.293 0l-33.707 33.707c-8.533 8.533-21.76 8.533-30.293 0l-33.707-33.707c-8.533-8.533-21.76-8.533-30.293 0l-33.707 33.707c-8.533 8.533-21.76 8.533-30.293 0l-33.707-33.707c-8.533-8.533-21.76-8.533-30.293 0l-34.133 34.133c-8.533 8.533-21.76 8.533-30.293 0l-33.707-34.133c-8.533-8.533-21.76-8.533-30.293 0l-33.707 34.133c-8.533 8.533-21.76 8.533-30.293 0l-33.707-34.133c-8.533-8.533-21.76-8.533-30.293 0l-33.707 34.133c-3.84 3.84-9.387 5.973-14.933 5.973v-835.842c5.547 0 11.093 2.133 14.933 6.4l33.707 33.707c8.533 8.533 21.76 8.533 30.293 0l33.707-33.707c8.533-8.533 21.76-8.533 30.293 0l33.707 33.707c8.533 8.533 21.76 8.533 30.293 0l33.707-33.707c8.533-8.533 21.76-8.533 30.293 0l33.707 33.707c8.533 8.533 21.76 8.533 30.293 0l33.707-33.707c8.533-8.533 21.76-8.533 30.293 0l33.707 33.707c8.533 8.533 21.76 8.533 30.293 0l33.707-33.707c5.355-5.355 12.561-7.347 19.294-5.982-29.269 39.151-46.601 87.74-46.601 140.382 0 129.604 105.062 234.667 234.667 234.667 22.033 0 43.354-3.038 63.573-8.713v469.084zM446.447 602.943v-104.285c52.275-14.814 108.22-36.143 108.22-106.061 0-52.143-31.083-101.321-108.22-106.654v-33.182c0-9.984-7.714-18.074-17.237-18.074-9.662-0.503-17.885 7.322-18.337 17.451 0 0.209-0.028 0.418-0.028 0.623v32.589c-39.247 1.331-76.771 17.182-105.96 44.736-4.012 4.267-6.244 10.014-6.216 15.996-0.169 13.687 9.862 25.126 22.888 26.074 5.143-0.119 10.116-1.984 14.128-5.333 21.305-18.782 47.3-30.78 74.878-34.662v118.507c-52.273 14.81-106.807 33.476-106.807 100.727 0 54.808 43.231 95.989 106.807 100.729v33.774c0.142 10.161 8.11 18.25 17.772 18.101 0.201 0 0.397 0 0.593-0.029 9.523 0 17.237-8.088 17.237-18.072v-34.959c32.58-1.955 63.663-15.079 88.444-37.329 4.011-4.266 6.242-10.014 6.212-15.998-0.141-13.954-10.991-25.182-24.299-25.182-4.151 0.058-8.166 1.392-11.584 3.851-17.152 13.746-37.214 22.9-58.492 26.663zM356.030 554.949c0-27.55 24.017-37.329 54.816-46.81v96.878c-33.059-2.665-54.816-22.515-54.816-50.068zM446.447 439.407v-107.84c41.822 5.333 56.512 31.996 56.512 54.515 0.282 31.104-24.58 43.844-56.512 53.325zM949.239 165.282c0-5.261-0.465-10.214-1.084-15.164l32.644-25.527c2.94-2.321 3.716-6.498 1.856-9.903l-30.942-53.534c-1.856-3.405-5.879-4.796-9.438-3.405l-38.524 15.471c-8.047-6.033-16.713-11.294-26.15-15.159l-5.879-41.003c-0.465-3.712-3.712-6.498-7.582-6.498h-61.888c-3.866 0-7.117 2.786-7.578 6.498l-5.879 41.003c-9.438 3.866-18.103 8.973-26.15 15.159l-38.524-15.471c-3.405-1.237-7.582 0-9.438 3.405l-30.946 53.534c-1.856 3.405-1.079 7.582 1.86 9.903l32.644 25.527c-0.619 4.949-1.084 10.057-1.084 15.164 0 5.103 0.465 10.21 1.084 15.159l-32.644 25.532c-2.94 2.321-3.87 6.498-1.86 9.899l30.946 53.534c1.856 3.405 5.879 4.796 9.438 3.405l38.524-15.471c8.047 6.033 16.713 11.294 26.15 15.159l5.879 41.003c0.461 3.712 3.712 6.498 7.578 6.498h61.888c3.87 0 7.117-2.786 7.582-6.498l5.879-41.003c9.438-3.866 18.103-8.973 26.15-15.159l38.524 15.471c3.405 1.237 7.582 0 9.438-3.405l30.942-53.534c1.86-3.401 1.084-7.578-1.856-9.899l-32.644-25.532c0.619-4.949 1.084-9.899 1.084-15.159zM779.038 165.278c0-29.858 24.29-54.148 54.153-54.148s54.153 24.29 54.153 54.148c0 29.862-24.29 54.153-54.153 54.153s-54.153-24.29-54.153-54.153z" />
<glyph unicode="&#xe92f;" glyph-name="note" d="M828.587 643.413c15.787-15.787 24.747-37.547 24.747-60.16v-476.587c0-46.933-38.4-85.333-85.333-85.333h-512.427c-46.933 0-84.907 37.973-84.907 84.907v683.093c0 46.933 38.4 85.333 85.333 85.333h305.92c22.613 0 44.373-8.96 60.587-25.173l206.080-206.080zM298.911 151.223c-0.162-0.704-0.244-1.335-0.244-1.89 0.073 0.61 0.154 1.242 0.244 1.89zM298.911 151.223c3.67 16.013 47.896 69.696 82.163 109.495 25.213 29.286 63.491 41.835 100.966 51.268 61.047 15.369 86.993 56.247 86.993 56.247-13.052-4.591-62.967 4.578-62.967 4.578-34.726 4.574 8.495 15.953 14.912 17.395 108.292 24.542 115.362 73.929 115.362 73.929-26.048-9.139-84.663 6.848-84.663 6.848 106.359 9.105 125.901 75.361 125.901 75.361-32.559-11.425-72.734-6.271-72.734-6.271 86.302 18.825 120.491 77.078 120.491 77.078-257.681 29.587-414.921-383.228-426.422-465.929z" />
<glyph unicode="&#xe930;" glyph-name="service_add" d="M277.333 576h-85.333c-23.467 0-42.667 19.2-42.667 42.667v85.333c0 23.467 19.2 42.667 42.667 42.667h85.333c23.467 0 42.667-19.2 42.667-42.667v-85.333c0-23.467-19.2-42.667-42.667-42.667zM192 362.667h85.333c23.467 0 42.667 19.2 42.667 42.667v85.333c0 23.467-19.2 42.667-42.667 42.667h-85.333c-23.467 0-42.667-19.2-42.667-42.667v-85.333c0-23.467 19.2-42.667 42.667-42.667zM192 149.333h85.333c23.467 0 42.667 19.2 42.667 42.667v85.333c0 23.467-19.2 42.667-42.667 42.667h-85.333c-23.467 0-42.667-19.2-42.667-42.667v-85.333c0-23.467 19.2-42.667 42.667-42.667zM874.667 424.789c-32.474 14.903-68.599 23.211-106.667 23.211-75.819 0-143.94-32.96-190.814-85.333h-171.853c-23.467 0-42.667 19.2-42.667 42.667v85.333c0 23.467 19.2 42.667 42.667 42.667h426.667c23.467 0 42.667-19.2 42.667-42.667v-65.877zM546.249 320c-21.781-37.653-34.249-81.37-34.249-128 0-14.537 1.212-28.791 3.541-42.667h-110.208c-23.467 0-42.667 19.2-42.667 42.667v85.333c0 23.467 19.2 42.667 42.667 42.667h140.915zM362.667 704v-85.333c0-23.467 19.2-42.667 42.667-42.667h426.667c23.467 0 42.667 19.2 42.667 42.667v85.333c0 23.467-19.2 42.667-42.667 42.667h-426.667c-23.467 0-42.667-19.2-42.667-42.667zM597.333 192c0 94.208 76.459 170.667 170.667 170.667s170.667-76.459 170.667-170.667c0-94.208-76.459-170.667-170.667-170.667s-170.667 76.459-170.667 170.667zM785.067 174.933h51.2c9.387 0 17.067 7.68 17.067 17.067s-7.68 17.067-17.067 17.067h-51.2v51.2c0 9.387-7.68 17.067-17.067 17.067s-17.067-7.68-17.067-17.067v-51.2h-51.2c-9.387 0-17.067-7.68-17.067-17.067s7.68-17.067 17.067-17.067h51.2v-51.2c0-9.387 7.68-17.067 17.067-17.067s17.067 7.68 17.067 17.067v51.2z" />
<glyph unicode="&#xe931;" glyph-name="service_list" d="M277.333 576h-85.333c-23.467 0-42.667 19.2-42.667 42.667v85.333c0 23.467 19.2 42.667 42.667 42.667h85.333c23.467 0 42.667-19.2 42.667-42.667v-85.333c0-23.467-19.2-42.667-42.667-42.667zM192 362.667h85.333c23.467 0 42.667 19.2 42.667 42.667v85.333c0 23.467-19.2 42.667-42.667 42.667h-85.333c-23.467 0-42.667-19.2-42.667-42.667v-85.333c0-23.467 19.2-42.667 42.667-42.667zM192 149.333h85.333c23.467 0 42.667 19.2 42.667 42.667v85.333c0 23.467-19.2 42.667-42.667 42.667h-85.333c-23.467 0-42.667-19.2-42.667-42.667v-85.333c0-23.467 19.2-42.667 42.667-42.667zM874.667 424.789c-32.474 14.903-68.599 23.211-106.667 23.211-75.819 0-143.94-32.96-190.814-85.333h-171.853c-23.467 0-42.667 19.2-42.667 42.667v85.333c0 23.467 19.2 42.667 42.667 42.667h426.667c23.467 0 42.667-19.2 42.667-42.667v-65.877zM546.249 320c-21.781-37.653-34.249-81.37-34.249-128 0-14.537 1.212-28.791 3.541-42.667h-110.208c-23.467 0-42.667 19.2-42.667 42.667v85.333c0 23.467 19.2 42.667 42.667 42.667h140.915zM362.667 704v-85.333c0-23.467 19.2-42.667 42.667-42.667h426.667c23.467 0 42.667 19.2 42.667 42.667v85.333c0 23.467-19.2 42.667-42.667 42.667h-426.667c-23.467 0-42.667-19.2-42.667-42.667zM597.333 192c0 94.208 76.459 170.667 170.667 170.667s170.667-76.459 170.667-170.667c0-94.208-76.459-170.667-170.667-170.667s-170.667 76.459-170.667 170.667zM704 298.667c-11.78 0-21.333-9.553-21.333-21.333s9.553-21.333 21.333-21.333h128c11.78 0 21.333 9.553 21.333 21.333s-9.553 21.333-21.333 21.333h-128zM682.667 192c0 11.78 9.553 21.333 21.333 21.333h128c11.78 0 21.333-9.553 21.333-21.333s-9.553-21.333-21.333-21.333h-128c-11.78 0-21.333 9.553-21.333 21.333zM704 128c-11.78 0-21.333-9.553-21.333-21.333s9.553-21.333 21.333-21.333h128c11.78 0 21.333 9.553 21.333 21.333s-9.553 21.333-21.333 21.333h-128z" />
<glyph unicode="&#x1f301;" glyph-name="package" d="M169.604 479.040v-376.64c0-21.12 17.28-38.4 38.4-38.4h608c21.44 0 38.4 17.28 38.4 38.4v376.64h-684.8zM605.41 358.498h-186.814c-17.184 0-31.136 13.952-31.136 31.134 0 17.186 13.952 31.138 31.136 31.138h186.814c17.186 0 31.138-13.952 31.138-31.138 0-17.182-13.952-31.134-31.138-31.134zM880 542.975h-736c-8.832 0-16 7.168-16 16v129.28h768v-129.312c0-8.832-7.168-15.968-16-15.968zM794.637 815.871c-8.094 10.19-20.399 16.129-33.412 16.129h-498.45c-13.013 0-25.315-5.939-33.41-16.129l-101.364-127.615h768l-101.363 127.615z" />
<glyph unicode="&#x1f304;" glyph-name="circle-unchecked" d="M512 21.333c-235.642 0-426.667 191.027-426.667 426.667s191.025 426.667 426.667 426.667c235.644 0 426.667-191.025 426.667-426.667 0-235.639-191.023-426.667-426.667-426.667zM512 106.667c188.514 0 341.333 152.819 341.333 341.333s-152.819 341.333-341.333 341.333-341.333-152.82-341.333-341.333c0-188.514 152.82-341.333 341.333-341.333z" />
<glyph unicode="&#x1f5f9;" glyph-name="package_list" d="M816 645.588h-736c-8.832 0-16 6.316-16 14.097v113.903h768v-113.931c0-7.782-7.168-14.069-16-14.069zM730.637 901.204c-8.094 10.19-20.399 16.129-33.412 16.129h-498.45c-13.013 0-25.315-5.939-33.41-16.129l-101.364-127.615h768l-101.363 127.615zM105.604 187.733v376.642h682.667v-116.375c-152.678-0.576-276.271-124.523-276.271-277.333 0-7.177 0.273-14.293 0.806-21.333h-368.922c-21.054 0-38.28 17.28-38.28 38.4zM353.821 443.831h186.233c17.131 0 31.040 13.952 31.040 31.134 0 17.186-13.909 31.138-31.040 31.138h-186.233c-17.131 0-31.039-13.952-31.039-31.138 0-17.182 13.908-31.134 31.039-31.134zM597.333 170.667c0 105.984 86.016 192 192 192s192-86.016 192-192c0-105.984-86.016-192-192-192s-192 86.016-192 192zM717.333 290.667c-13.257 0-24-10.743-24-24s10.743-24 24-24h144c13.257 0 24 10.743 24 24s-10.743 24-24 24h-144zM693.333 170.667c0 13.257 10.743 24 24 24h144c13.257 0 24-10.743 24-24s-10.743-24-24-24h-144c-13.257 0-24 10.743-24 24zM717.333 98.667c-13.257 0-24-10.743-24-24s10.743-24 24-24h144c13.257 0 24 10.743 24 24s-10.743 24-24 24h-144z" />
</font>
</defs>
</svg>
